<svg width="500" height="500" viewBox="0 0 500 500" fill="none" xmlns="http://www.w3.org/2000/svg">
  <!-- Background circle -->
  <circle cx="250" cy="250" r="200" fill="url(#gradient1)" opacity="0.1"/>
  
  <!-- Code editor representation -->
  <rect x="100" y="150" width="300" height="200" rx="12" fill="url(#gradient2)" stroke="url(#gradient3)" stroke-width="2"/>
  
  <!-- Code lines -->
  <rect x="120" y="180" width="80" height="4" rx="2" fill="#6366f1"/>
  <rect x="210" y="180" width="60" height="4" rx="2" fill="#ec4899"/>
  <rect x="280" y="180" width="40" height="4" rx="2" fill="#10b981"/>
  
  <rect x="120" y="200" width="120" height="4" rx="2" fill="#8b5cf6"/>
  <rect x="250" y="200" width="80" height="4" rx="2" fill="#f59e0b"/>
  
  <rect x="120" y="220" width="60" height="4" rx="2" fill="#ef4444"/>
  <rect x="190" y="220" width="100" height="4" rx="2" fill="#06b6d4"/>
  
  <rect x="120" y="240" width="90" height="4" rx="2" fill="#84cc16"/>
  <rect x="220" y="240" width="50" height="4" rx="2" fill="#f97316"/>
  
  <!-- Floating elements -->
  <circle cx="120" cy="120" r="8" fill="#6366f1" opacity="0.6"/>
  <circle cx="380" cy="140" r="6" fill="#ec4899" opacity="0.6"/>
  <circle cx="150" cy="380" r="10" fill="#10b981" opacity="0.6"/>
  <circle cx="370" cy="360" r="7" fill="#8b5cf6" opacity="0.6"/>
  
  <!-- Sparkles -->
  <path d="M180 100 L185 110 L195 105 L185 115 Z" fill="#f59e0b" opacity="0.8"/>
  <path d="M340 120 L343 127 L350 124 L343 131 Z" fill="#06b6d4" opacity="0.8"/>
  <path d="M160 340 L164 349 L173 346 L164 353 Z" fill="#ef4444" opacity="0.8"/>
  
  <defs>
    <linearGradient id="gradient1" x1="0%" y1="0%" x2="100%" y2="100%">
      <stop offset="0%" style="stop-color:#6366f1"/>
      <stop offset="50%" style="stop-color:#ec4899"/>
      <stop offset="100%" style="stop-color:#10b981"/>
    </linearGradient>
    
    <linearGradient id="gradient2" x1="0%" y1="0%" x2="100%" y2="100%">
      <stop offset="0%" style="stop-color:#1f2937"/>
      <stop offset="100%" style="stop-color:#111827"/>
    </linearGradient>
    
    <linearGradient id="gradient3" x1="0%" y1="0%" x2="100%" y2="100%">
      <stop offset="0%" style="stop-color:#6366f1"/>
      <stop offset="100%" style="stop-color:#ec4899"/>
    </linearGradient>
  </defs>
</svg>
